<mxfile host="app.diagrams.net" modified="2023-11-17T10:04:11.264Z" agent="Mozilla/5.0 (Windows NT 10.0; Win64; x64) AppleWebKit/537.36 (KHTML, like Gecko) Chrome/119.0.0.0 Safari/537.36" etag="KBoG_YYOy6TJC5d1nV4w" version="22.1.2" type="github">
  <diagram id="C5RBs43oDa-KdzZeNtuy" name="Page-1">
    <mxGraphModel dx="1078" dy="513" grid="0" gridSize="10" guides="1" tooltips="1" connect="1" arrows="1" fold="1" page="1" pageScale="1" pageWidth="827" pageHeight="1169" math="0" shadow="0">
      <root>
        <mxCell id="WIyWlLk6GJQsqaUBKTNV-0" />
        <mxCell id="WIyWlLk6GJQsqaUBKTNV-1" parent="WIyWlLk6GJQsqaUBKTNV-0" />
        <mxCell id="i-_kAkva54_15qW7jgiC-11" value="开始" style="strokeWidth=2;html=1;shape=mxgraph.flowchart.start_1;whiteSpace=wrap;fontSize=10;" vertex="1" parent="WIyWlLk6GJQsqaUBKTNV-1">
          <mxGeometry x="308" y="15" width="73" height="35" as="geometry" />
        </mxCell>
        <mxCell id="i-_kAkva54_15qW7jgiC-12" style="edgeStyle=orthogonalEdgeStyle;rounded=0;orthogonalLoop=1;jettySize=auto;html=1;" edge="1" parent="WIyWlLk6GJQsqaUBKTNV-1" source="i-_kAkva54_15qW7jgiC-14">
          <mxGeometry relative="1" as="geometry">
            <mxPoint x="472" y="82.0344827586207" as="targetPoint" />
          </mxGeometry>
        </mxCell>
        <mxCell id="i-_kAkva54_15qW7jgiC-13" value="关闭" style="edgeLabel;html=1;align=center;verticalAlign=middle;resizable=0;points=[];fontSize=10;" vertex="1" connectable="0" parent="i-_kAkva54_15qW7jgiC-12">
          <mxGeometry x="0.2179" y="-1" relative="1" as="geometry">
            <mxPoint as="offset" />
          </mxGeometry>
        </mxCell>
        <mxCell id="i-_kAkva54_15qW7jgiC-14" value="灰度检查开关开启?" style="strokeWidth=2;html=1;shape=mxgraph.flowchart.decision;whiteSpace=wrap;fontSize=9;" vertex="1" parent="WIyWlLk6GJQsqaUBKTNV-1">
          <mxGeometry x="281.87" y="68" width="125.25" height="28" as="geometry" />
        </mxCell>
        <mxCell id="i-_kAkva54_15qW7jgiC-15" style="edgeStyle=orthogonalEdgeStyle;rounded=0;orthogonalLoop=1;jettySize=auto;html=1;entryX=0.5;entryY=0;entryDx=0;entryDy=0;entryPerimeter=0;fontSize=9;" edge="1" parent="WIyWlLk6GJQsqaUBKTNV-1" source="i-_kAkva54_15qW7jgiC-11" target="i-_kAkva54_15qW7jgiC-14">
          <mxGeometry relative="1" as="geometry" />
        </mxCell>
        <mxCell id="i-_kAkva54_15qW7jgiC-16" style="edgeStyle=orthogonalEdgeStyle;rounded=0;orthogonalLoop=1;jettySize=auto;html=1;" edge="1" parent="WIyWlLk6GJQsqaUBKTNV-1" source="i-_kAkva54_15qW7jgiC-17" target="i-_kAkva54_15qW7jgiC-24">
          <mxGeometry relative="1" as="geometry" />
        </mxCell>
        <mxCell id="i-_kAkva54_15qW7jgiC-17" value="每隔3秒调用灰度健康检查接口,记录结果" style="rounded=0;whiteSpace=wrap;html=1;fontSize=10;" vertex="1" parent="WIyWlLk6GJQsqaUBKTNV-1">
          <mxGeometry x="295" y="123" width="104" height="37" as="geometry" />
        </mxCell>
        <mxCell id="i-_kAkva54_15qW7jgiC-18" style="edgeStyle=orthogonalEdgeStyle;rounded=0;orthogonalLoop=1;jettySize=auto;html=1;entryX=0.45;entryY=0.064;entryDx=0;entryDy=0;entryPerimeter=0;" edge="1" parent="WIyWlLk6GJQsqaUBKTNV-1" source="i-_kAkva54_15qW7jgiC-14" target="i-_kAkva54_15qW7jgiC-17">
          <mxGeometry relative="1" as="geometry" />
        </mxCell>
        <mxCell id="i-_kAkva54_15qW7jgiC-19" value="开启" style="edgeLabel;html=1;align=center;verticalAlign=middle;resizable=0;points=[];fontSize=10;" vertex="1" connectable="0" parent="i-_kAkva54_15qW7jgiC-18">
          <mxGeometry x="-0.1641" y="-2" relative="1" as="geometry">
            <mxPoint x="-1" y="1" as="offset" />
          </mxGeometry>
        </mxCell>
        <mxCell id="i-_kAkva54_15qW7jgiC-20" value="结束" style="strokeWidth=2;html=1;shape=mxgraph.flowchart.terminator;whiteSpace=wrap;fontSize=10;" vertex="1" parent="WIyWlLk6GJQsqaUBKTNV-1">
          <mxGeometry x="470" y="68" width="64" height="31" as="geometry" />
        </mxCell>
        <mxCell id="i-_kAkva54_15qW7jgiC-21" value="灰度健康&lt;br style=&quot;font-size: 15px;&quot;&gt;定时检查任务" style="text;html=1;strokeColor=none;fillColor=none;align=center;verticalAlign=middle;whiteSpace=wrap;rounded=0;fontStyle=1;fontSize=15;" vertex="1" parent="WIyWlLk6GJQsqaUBKTNV-1">
          <mxGeometry x="169" y="55.5" width="94.32" height="53" as="geometry" />
        </mxCell>
        <mxCell id="i-_kAkva54_15qW7jgiC-22" value="" style="edgeStyle=orthogonalEdgeStyle;rounded=0;orthogonalLoop=1;jettySize=auto;html=1;" edge="1" parent="WIyWlLk6GJQsqaUBKTNV-1" source="i-_kAkva54_15qW7jgiC-24" target="i-_kAkva54_15qW7jgiC-26">
          <mxGeometry relative="1" as="geometry" />
        </mxCell>
        <mxCell id="i-_kAkva54_15qW7jgiC-23" style="edgeStyle=orthogonalEdgeStyle;rounded=0;orthogonalLoop=1;jettySize=auto;html=1;entryX=0.5;entryY=0;entryDx=0;entryDy=0;" edge="1" parent="WIyWlLk6GJQsqaUBKTNV-1" source="i-_kAkva54_15qW7jgiC-24" target="i-_kAkva54_15qW7jgiC-25">
          <mxGeometry relative="1" as="geometry" />
        </mxCell>
        <mxCell id="i-_kAkva54_15qW7jgiC-24" value="成功?" style="strokeWidth=2;html=1;shape=mxgraph.flowchart.decision;whiteSpace=wrap;fontSize=9;" vertex="1" parent="WIyWlLk6GJQsqaUBKTNV-1">
          <mxGeometry x="284.37" y="187" width="123.63" height="21" as="geometry" />
        </mxCell>
        <mxCell id="i-_kAkva54_15qW7jgiC-25" value="&lt;div class=&quot;lake-content&quot;&gt;成功次数+1.如果此时链接状态不正常且成功次数大于3次,则将连接状态置为正常,失败次数重置为0&lt;/div&gt;" style="rounded=0;whiteSpace=wrap;html=1;fontSize=10;" vertex="1" parent="WIyWlLk6GJQsqaUBKTNV-1">
          <mxGeometry x="280.77" y="230" width="130.82" height="58" as="geometry" />
        </mxCell>
        <mxCell id="i-_kAkva54_15qW7jgiC-26" value="&lt;div class=&quot;lake-content&quot;&gt;失败次数+1.如果此时连接状态为正常,则将连接状态置为不正常,成功次数重置为0&lt;/div&gt;" style="rounded=0;whiteSpace=wrap;html=1;fontSize=10;" vertex="1" parent="WIyWlLk6GJQsqaUBKTNV-1">
          <mxGeometry x="458" y="174.5" width="125" height="46" as="geometry" />
        </mxCell>
        <mxCell id="i-_kAkva54_15qW7jgiC-27" value="结束" style="strokeWidth=2;html=1;shape=mxgraph.flowchart.terminator;whiteSpace=wrap;fontSize=10;" vertex="1" parent="WIyWlLk6GJQsqaUBKTNV-1">
          <mxGeometry x="616" y="182" width="64" height="31" as="geometry" />
        </mxCell>
        <mxCell id="i-_kAkva54_15qW7jgiC-28" style="edgeStyle=orthogonalEdgeStyle;rounded=0;orthogonalLoop=1;jettySize=auto;html=1;entryX=0;entryY=0.5;entryDx=0;entryDy=0;entryPerimeter=0;" edge="1" parent="WIyWlLk6GJQsqaUBKTNV-1" source="i-_kAkva54_15qW7jgiC-26" target="i-_kAkva54_15qW7jgiC-27">
          <mxGeometry relative="1" as="geometry" />
        </mxCell>
        <mxCell id="i-_kAkva54_15qW7jgiC-29" style="edgeStyle=orthogonalEdgeStyle;rounded=0;orthogonalLoop=1;jettySize=auto;html=1;entryX=0.5;entryY=1;entryDx=0;entryDy=0;entryPerimeter=0;" edge="1" parent="WIyWlLk6GJQsqaUBKTNV-1" source="i-_kAkva54_15qW7jgiC-25" target="i-_kAkva54_15qW7jgiC-27">
          <mxGeometry relative="1" as="geometry" />
        </mxCell>
        <mxCell id="i-_kAkva54_15qW7jgiC-30" style="edgeStyle=orthogonalEdgeStyle;rounded=0;orthogonalLoop=1;jettySize=auto;html=1;" edge="1" parent="WIyWlLk6GJQsqaUBKTNV-1" source="i-_kAkva54_15qW7jgiC-31">
          <mxGeometry relative="1" as="geometry">
            <mxPoint x="314.18000000000006" y="393.8275862068966" as="targetPoint" />
          </mxGeometry>
        </mxCell>
        <mxCell id="i-_kAkva54_15qW7jgiC-31" value="开始" style="strokeWidth=2;html=1;shape=mxgraph.flowchart.start_1;whiteSpace=wrap;fontSize=10;" vertex="1" parent="WIyWlLk6GJQsqaUBKTNV-1">
          <mxGeometry x="277.68" y="328" width="73" height="35" as="geometry" />
        </mxCell>
        <mxCell id="i-_kAkva54_15qW7jgiC-32" style="edgeStyle=orthogonalEdgeStyle;rounded=0;orthogonalLoop=1;jettySize=auto;html=1;" edge="1" parent="WIyWlLk6GJQsqaUBKTNV-1" source="i-_kAkva54_15qW7jgiC-34">
          <mxGeometry relative="1" as="geometry">
            <mxPoint x="413" y="457" as="targetPoint" />
          </mxGeometry>
        </mxCell>
        <mxCell id="i-_kAkva54_15qW7jgiC-33" value="否" style="edgeLabel;html=1;align=center;verticalAlign=middle;resizable=0;points=[];" vertex="1" connectable="0" parent="i-_kAkva54_15qW7jgiC-32">
          <mxGeometry x="-0.0255" relative="1" as="geometry">
            <mxPoint as="offset" />
          </mxGeometry>
        </mxCell>
        <mxCell id="i-_kAkva54_15qW7jgiC-34" value="灰度是否连通" style="strokeWidth=2;html=1;shape=mxgraph.flowchart.decision;whiteSpace=wrap;fontSize=10;" vertex="1" parent="WIyWlLk6GJQsqaUBKTNV-1">
          <mxGeometry x="252.38" y="443" width="125.25" height="28" as="geometry" />
        </mxCell>
        <mxCell id="i-_kAkva54_15qW7jgiC-35" style="edgeStyle=orthogonalEdgeStyle;rounded=0;orthogonalLoop=1;jettySize=auto;html=1;entryX=0.45;entryY=0.064;entryDx=0;entryDy=0;entryPerimeter=0;" edge="1" parent="WIyWlLk6GJQsqaUBKTNV-1" source="i-_kAkva54_15qW7jgiC-34">
          <mxGeometry relative="1" as="geometry">
            <mxPoint x="314.79999999999995" y="510.36799999999994" as="targetPoint" />
          </mxGeometry>
        </mxCell>
        <mxCell id="i-_kAkva54_15qW7jgiC-36" value="是" style="edgeLabel;html=1;align=center;verticalAlign=middle;resizable=0;points=[];fontSize=10;" vertex="1" connectable="0" parent="i-_kAkva54_15qW7jgiC-35">
          <mxGeometry x="-0.1641" y="-2" relative="1" as="geometry">
            <mxPoint x="2" y="1" as="offset" />
          </mxGeometry>
        </mxCell>
        <mxCell id="i-_kAkva54_15qW7jgiC-37" value="灰度转发策略" style="text;html=1;strokeColor=none;fillColor=none;align=center;verticalAlign=middle;whiteSpace=wrap;rounded=0;fontStyle=1;fontSize=15;" vertex="1" parent="WIyWlLk6GJQsqaUBKTNV-1">
          <mxGeometry x="180" y="355" width="66" height="55" as="geometry" />
        </mxCell>
        <mxCell id="i-_kAkva54_15qW7jgiC-38" style="edgeStyle=orthogonalEdgeStyle;rounded=0;orthogonalLoop=1;jettySize=auto;html=1;" edge="1" parent="WIyWlLk6GJQsqaUBKTNV-1" source="i-_kAkva54_15qW7jgiC-42" target="i-_kAkva54_15qW7jgiC-49">
          <mxGeometry relative="1" as="geometry" />
        </mxCell>
        <mxCell id="i-_kAkva54_15qW7jgiC-39" value="是" style="edgeLabel;html=1;align=center;verticalAlign=middle;resizable=0;points=[];" vertex="1" connectable="0" parent="i-_kAkva54_15qW7jgiC-38">
          <mxGeometry x="-0.2402" y="1" relative="1" as="geometry">
            <mxPoint as="offset" />
          </mxGeometry>
        </mxCell>
        <mxCell id="i-_kAkva54_15qW7jgiC-40" style="edgeStyle=orthogonalEdgeStyle;rounded=0;orthogonalLoop=1;jettySize=auto;html=1;" edge="1" parent="WIyWlLk6GJQsqaUBKTNV-1" source="i-_kAkva54_15qW7jgiC-42">
          <mxGeometry relative="1" as="geometry">
            <mxPoint x="314.2068965517242" y="599" as="targetPoint" />
          </mxGeometry>
        </mxCell>
        <mxCell id="i-_kAkva54_15qW7jgiC-41" value="否" style="edgeLabel;html=1;align=center;verticalAlign=middle;resizable=0;points=[];" vertex="1" connectable="0" parent="i-_kAkva54_15qW7jgiC-40">
          <mxGeometry x="-0.3229" y="3" relative="1" as="geometry">
            <mxPoint x="-4" y="3" as="offset" />
          </mxGeometry>
        </mxCell>
        <mxCell id="i-_kAkva54_15qW7jgiC-42" value="请求url是否带有gray参数" style="strokeWidth=2;html=1;shape=mxgraph.flowchart.decision;whiteSpace=wrap;fontSize=10;" vertex="1" parent="WIyWlLk6GJQsqaUBKTNV-1">
          <mxGeometry x="254.51" y="512" width="120.99" height="49" as="geometry" />
        </mxCell>
        <mxCell id="i-_kAkva54_15qW7jgiC-43" value="&lt;div class=&quot;lake-content&quot;&gt;请求进入生产网关&lt;/div&gt;" style="rounded=0;whiteSpace=wrap;html=1;fontSize=10;" vertex="1" parent="WIyWlLk6GJQsqaUBKTNV-1">
          <mxGeometry x="271.5" y="394" width="87" height="24" as="geometry" />
        </mxCell>
        <mxCell id="i-_kAkva54_15qW7jgiC-44" style="edgeStyle=orthogonalEdgeStyle;rounded=0;orthogonalLoop=1;jettySize=auto;html=1;entryX=0.5;entryY=0;entryDx=0;entryDy=0;entryPerimeter=0;" edge="1" parent="WIyWlLk6GJQsqaUBKTNV-1" source="i-_kAkva54_15qW7jgiC-43" target="i-_kAkva54_15qW7jgiC-34">
          <mxGeometry relative="1" as="geometry" />
        </mxCell>
        <mxCell id="i-_kAkva54_15qW7jgiC-45" style="edgeStyle=orthogonalEdgeStyle;rounded=0;orthogonalLoop=1;jettySize=auto;html=1;" edge="1" parent="WIyWlLk6GJQsqaUBKTNV-1" source="i-_kAkva54_15qW7jgiC-46" target="i-_kAkva54_15qW7jgiC-47">
          <mxGeometry relative="1" as="geometry" />
        </mxCell>
        <mxCell id="i-_kAkva54_15qW7jgiC-46" value="&lt;div class=&quot;lake-content&quot;&gt;生产网关将请求转发给生产环境对应的微服务&lt;/div&gt;" style="rounded=0;whiteSpace=wrap;html=1;fontSize=10;" vertex="1" parent="WIyWlLk6GJQsqaUBKTNV-1">
          <mxGeometry x="413" y="440" width="92" height="33" as="geometry" />
        </mxCell>
        <mxCell id="i-_kAkva54_15qW7jgiC-47" value="结束" style="strokeWidth=2;html=1;shape=mxgraph.flowchart.terminator;whiteSpace=wrap;fontSize=10;" vertex="1" parent="WIyWlLk6GJQsqaUBKTNV-1">
          <mxGeometry x="534" y="441" width="64" height="31" as="geometry" />
        </mxCell>
        <mxCell id="i-_kAkva54_15qW7jgiC-48" style="edgeStyle=orthogonalEdgeStyle;rounded=0;orthogonalLoop=1;jettySize=auto;html=1;" edge="1" parent="WIyWlLk6GJQsqaUBKTNV-1" source="i-_kAkva54_15qW7jgiC-49" target="i-_kAkva54_15qW7jgiC-47">
          <mxGeometry relative="1" as="geometry" />
        </mxCell>
        <mxCell id="i-_kAkva54_15qW7jgiC-49" value="&lt;div class=&quot;lake-content&quot;&gt;生产网关将请求转发给灰度网关,&lt;/div&gt;&lt;div class=&quot;lake-content&quot;&gt;灰度网关将请求转发给灰度环境对应的微服务&lt;br&gt;&lt;/div&gt;" style="rounded=0;whiteSpace=wrap;html=1;fontSize=10;" vertex="1" parent="WIyWlLk6GJQsqaUBKTNV-1">
          <mxGeometry x="492" y="509.75" width="149" height="53.5" as="geometry" />
        </mxCell>
        <mxCell id="i-_kAkva54_15qW7jgiC-50" style="edgeStyle=orthogonalEdgeStyle;rounded=0;orthogonalLoop=1;jettySize=auto;html=1;entryX=0.5;entryY=0;entryDx=0;entryDy=0;" edge="1" parent="WIyWlLk6GJQsqaUBKTNV-1" source="i-_kAkva54_15qW7jgiC-51" target="i-_kAkva54_15qW7jgiC-52">
          <mxGeometry relative="1" as="geometry" />
        </mxCell>
        <mxCell id="i-_kAkva54_15qW7jgiC-51" value="&lt;div class=&quot;lake-content&quot;&gt;获取请求头的版本号内容&lt;/div&gt;" style="rounded=0;whiteSpace=wrap;html=1;fontSize=10;" vertex="1" parent="WIyWlLk6GJQsqaUBKTNV-1">
          <mxGeometry x="275.01" y="600" width="80" height="34.5" as="geometry" />
        </mxCell>
        <mxCell id="i-_kAkva54_15qW7jgiC-52" value="&lt;div class=&quot;lake-content&quot;&gt;获取策略配置&lt;/div&gt;&lt;div class=&quot;lake-content&quot;&gt;&lt;div class=&quot;lake-content&quot;&gt;1 按比例转发&lt;/div&gt;&lt;div class=&quot;lake-content&quot;&gt;2 按请求头版本号转发&lt;/div&gt;&lt;div class=&quot;lake-content&quot;&gt;&lt;span style=&quot;background-color: initial;&quot;&gt;3 按店铺id转发&lt;/span&gt;&lt;/div&gt;&lt;div class=&quot;lake-content&quot;&gt;4 按店铺id前缀转发&lt;/div&gt;&lt;/div&gt;" style="rounded=0;whiteSpace=wrap;html=1;fontSize=10;" vertex="1" parent="WIyWlLk6GJQsqaUBKTNV-1">
          <mxGeometry x="260.93" y="662" width="108.12" height="73" as="geometry" />
        </mxCell>
        <mxCell id="i-_kAkva54_15qW7jgiC-53" style="edgeStyle=orthogonalEdgeStyle;rounded=0;orthogonalLoop=1;jettySize=auto;html=1;" edge="1" parent="WIyWlLk6GJQsqaUBKTNV-1" source="i-_kAkva54_15qW7jgiC-55">
          <mxGeometry relative="1" as="geometry">
            <mxPoint x="419" y="783" as="targetPoint" />
          </mxGeometry>
        </mxCell>
        <mxCell id="i-_kAkva54_15qW7jgiC-54" value="是" style="edgeLabel;html=1;align=center;verticalAlign=middle;resizable=0;points=[];" vertex="1" connectable="0" parent="i-_kAkva54_15qW7jgiC-53">
          <mxGeometry x="-0.4282" y="2" relative="1" as="geometry">
            <mxPoint x="5" y="2" as="offset" />
          </mxGeometry>
        </mxCell>
        <mxCell id="i-_kAkva54_15qW7jgiC-55" value="配置了按比例转发" style="strokeWidth=2;html=1;shape=mxgraph.flowchart.decision;whiteSpace=wrap;fontSize=10;" vertex="1" parent="WIyWlLk6GJQsqaUBKTNV-1">
          <mxGeometry x="254.5" y="758" width="120.99" height="49" as="geometry" />
        </mxCell>
        <mxCell id="i-_kAkva54_15qW7jgiC-56" style="edgeStyle=orthogonalEdgeStyle;rounded=0;orthogonalLoop=1;jettySize=auto;html=1;entryX=0.5;entryY=0;entryDx=0;entryDy=0;entryPerimeter=0;" edge="1" parent="WIyWlLk6GJQsqaUBKTNV-1" source="i-_kAkva54_15qW7jgiC-52" target="i-_kAkva54_15qW7jgiC-55">
          <mxGeometry relative="1" as="geometry" />
        </mxCell>
        <mxCell id="i-_kAkva54_15qW7jgiC-57" style="edgeStyle=orthogonalEdgeStyle;curved=1;rounded=0;orthogonalLoop=1;jettySize=auto;html=1;" edge="1" parent="WIyWlLk6GJQsqaUBKTNV-1" source="i-_kAkva54_15qW7jgiC-59" target="i-_kAkva54_15qW7jgiC-64">
          <mxGeometry relative="1" as="geometry" />
        </mxCell>
        <mxCell id="i-_kAkva54_15qW7jgiC-58" value="否" style="edgeLabel;html=1;align=center;verticalAlign=middle;resizable=0;points=[];" vertex="1" connectable="0" parent="i-_kAkva54_15qW7jgiC-57">
          <mxGeometry x="-0.0275" relative="1" as="geometry">
            <mxPoint as="offset" />
          </mxGeometry>
        </mxCell>
        <mxCell id="i-_kAkva54_15qW7jgiC-59" value="比例命中网关" style="strokeWidth=2;html=1;shape=mxgraph.flowchart.decision;whiteSpace=wrap;fontSize=10;" vertex="1" parent="WIyWlLk6GJQsqaUBKTNV-1">
          <mxGeometry x="416" y="759" width="101" height="46" as="geometry" />
        </mxCell>
        <mxCell id="i-_kAkva54_15qW7jgiC-60" style="edgeStyle=orthogonalEdgeStyle;rounded=0;orthogonalLoop=1;jettySize=auto;html=1;entryX=0.67;entryY=0.975;entryDx=0;entryDy=0;entryPerimeter=0;" edge="1" parent="WIyWlLk6GJQsqaUBKTNV-1" source="i-_kAkva54_15qW7jgiC-59" target="i-_kAkva54_15qW7jgiC-49">
          <mxGeometry relative="1" as="geometry" />
        </mxCell>
        <mxCell id="i-_kAkva54_15qW7jgiC-61" value="是" style="edgeLabel;html=1;align=center;verticalAlign=middle;resizable=0;points=[];" vertex="1" connectable="0" parent="i-_kAkva54_15qW7jgiC-60">
          <mxGeometry x="-0.1795" y="-2" relative="1" as="geometry">
            <mxPoint x="14" y="-1" as="offset" />
          </mxGeometry>
        </mxCell>
        <mxCell id="i-_kAkva54_15qW7jgiC-62" style="edgeStyle=orthogonalEdgeStyle;rounded=0;orthogonalLoop=1;jettySize=auto;html=1;" edge="1" parent="WIyWlLk6GJQsqaUBKTNV-1" source="i-_kAkva54_15qW7jgiC-64" target="i-_kAkva54_15qW7jgiC-67">
          <mxGeometry relative="1" as="geometry" />
        </mxCell>
        <mxCell id="i-_kAkva54_15qW7jgiC-63" value="是" style="edgeLabel;html=1;align=center;verticalAlign=middle;resizable=0;points=[];" vertex="1" connectable="0" parent="i-_kAkva54_15qW7jgiC-62">
          <mxGeometry x="-0.2011" y="3" relative="1" as="geometry">
            <mxPoint x="6" y="3" as="offset" />
          </mxGeometry>
        </mxCell>
        <mxCell id="i-_kAkva54_15qW7jgiC-64" value="配置版本号策略且命中" style="strokeWidth=2;html=1;shape=mxgraph.flowchart.decision;whiteSpace=wrap;fontSize=10;" vertex="1" parent="WIyWlLk6GJQsqaUBKTNV-1">
          <mxGeometry x="207.51" y="843" width="214.97" height="52" as="geometry" />
        </mxCell>
        <mxCell id="i-_kAkva54_15qW7jgiC-65" style="edgeStyle=orthogonalEdgeStyle;rounded=0;orthogonalLoop=1;jettySize=auto;html=1;entryX=0.5;entryY=0;entryDx=0;entryDy=0;entryPerimeter=0;" edge="1" parent="WIyWlLk6GJQsqaUBKTNV-1" source="i-_kAkva54_15qW7jgiC-55" target="i-_kAkva54_15qW7jgiC-64">
          <mxGeometry relative="1" as="geometry" />
        </mxCell>
        <mxCell id="i-_kAkva54_15qW7jgiC-66" value="否" style="edgeLabel;html=1;align=center;verticalAlign=middle;resizable=0;points=[];" vertex="1" connectable="0" parent="i-_kAkva54_15qW7jgiC-65">
          <mxGeometry x="-0.5643" y="-3" relative="1" as="geometry">
            <mxPoint x="3" as="offset" />
          </mxGeometry>
        </mxCell>
        <mxCell id="i-_kAkva54_15qW7jgiC-67" value="&lt;div class=&quot;lake-content&quot;&gt;&lt;div style=&quot;border-color: var(--border-color);&quot; class=&quot;lake-content&quot;&gt;生产网关将请求转发给灰度网关,&lt;/div&gt;&lt;div style=&quot;border-color: var(--border-color);&quot; class=&quot;lake-content&quot;&gt;灰度网关将请求转发给灰度环境对应的微服务&lt;/div&gt;&lt;/div&gt;" style="rounded=0;whiteSpace=wrap;html=1;fontSize=10;" vertex="1" parent="WIyWlLk6GJQsqaUBKTNV-1">
          <mxGeometry x="495" y="849.37" width="166" height="39.25" as="geometry" />
        </mxCell>
        <mxCell id="i-_kAkva54_15qW7jgiC-68" style="edgeStyle=orthogonalEdgeStyle;curved=1;rounded=0;orthogonalLoop=1;jettySize=auto;html=1;" edge="1" parent="WIyWlLk6GJQsqaUBKTNV-1" source="i-_kAkva54_15qW7jgiC-70" target="i-_kAkva54_15qW7jgiC-67">
          <mxGeometry relative="1" as="geometry" />
        </mxCell>
        <mxCell id="i-_kAkva54_15qW7jgiC-69" value="是" style="edgeLabel;html=1;align=center;verticalAlign=middle;resizable=0;points=[];" vertex="1" connectable="0" parent="i-_kAkva54_15qW7jgiC-68">
          <mxGeometry x="-0.2484" y="6" relative="1" as="geometry">
            <mxPoint as="offset" />
          </mxGeometry>
        </mxCell>
        <mxCell id="i-_kAkva54_15qW7jgiC-70" value="配置shopId策略且命中" style="strokeWidth=2;html=1;shape=mxgraph.flowchart.decision;whiteSpace=wrap;fontSize=10;" vertex="1" parent="WIyWlLk6GJQsqaUBKTNV-1">
          <mxGeometry x="253.69" y="928" width="120.99" height="49" as="geometry" />
        </mxCell>
        <mxCell id="i-_kAkva54_15qW7jgiC-71" style="edgeStyle=orthogonalEdgeStyle;curved=1;rounded=0;orthogonalLoop=1;jettySize=auto;html=1;entryX=0.5;entryY=0;entryDx=0;entryDy=0;entryPerimeter=0;" edge="1" parent="WIyWlLk6GJQsqaUBKTNV-1" source="i-_kAkva54_15qW7jgiC-64" target="i-_kAkva54_15qW7jgiC-70">
          <mxGeometry relative="1" as="geometry" />
        </mxCell>
        <mxCell id="i-_kAkva54_15qW7jgiC-72" value="否" style="edgeLabel;html=1;align=center;verticalAlign=middle;resizable=0;points=[];" vertex="1" connectable="0" parent="i-_kAkva54_15qW7jgiC-71">
          <mxGeometry x="-0.1315" y="-1" relative="1" as="geometry">
            <mxPoint as="offset" />
          </mxGeometry>
        </mxCell>
        <mxCell id="i-_kAkva54_15qW7jgiC-73" style="edgeStyle=orthogonalEdgeStyle;curved=1;rounded=0;orthogonalLoop=1;jettySize=auto;html=1;entryX=0.5;entryY=0;entryDx=0;entryDy=0;" edge="1" parent="WIyWlLk6GJQsqaUBKTNV-1" source="i-_kAkva54_15qW7jgiC-75" target="i-_kAkva54_15qW7jgiC-83">
          <mxGeometry relative="1" as="geometry" />
        </mxCell>
        <mxCell id="i-_kAkva54_15qW7jgiC-74" value="否" style="edgeLabel;html=1;align=center;verticalAlign=middle;resizable=0;points=[];" vertex="1" connectable="0" parent="i-_kAkva54_15qW7jgiC-73">
          <mxGeometry x="-0.3505" y="-3" relative="1" as="geometry">
            <mxPoint x="3" y="2" as="offset" />
          </mxGeometry>
        </mxCell>
        <mxCell id="i-_kAkva54_15qW7jgiC-75" value="配置shopId前缀策略且命中" style="strokeWidth=2;html=1;shape=mxgraph.flowchart.decision;whiteSpace=wrap;fontSize=10;" vertex="1" parent="WIyWlLk6GJQsqaUBKTNV-1">
          <mxGeometry x="245.35999999999999" y="1016" width="139.31" height="44" as="geometry" />
        </mxCell>
        <mxCell id="i-_kAkva54_15qW7jgiC-76" style="edgeStyle=orthogonalEdgeStyle;curved=1;rounded=0;orthogonalLoop=1;jettySize=auto;html=1;entryX=0.5;entryY=0;entryDx=0;entryDy=0;entryPerimeter=0;" edge="1" parent="WIyWlLk6GJQsqaUBKTNV-1" source="i-_kAkva54_15qW7jgiC-70" target="i-_kAkva54_15qW7jgiC-75">
          <mxGeometry relative="1" as="geometry" />
        </mxCell>
        <mxCell id="i-_kAkva54_15qW7jgiC-77" value="否" style="edgeLabel;html=1;align=center;verticalAlign=middle;resizable=0;points=[];" vertex="1" connectable="0" parent="i-_kAkva54_15qW7jgiC-76">
          <mxGeometry x="-0.3126" y="3" relative="1" as="geometry">
            <mxPoint x="-3" y="1" as="offset" />
          </mxGeometry>
        </mxCell>
        <mxCell id="i-_kAkva54_15qW7jgiC-78" style="edgeStyle=orthogonalEdgeStyle;curved=1;rounded=0;orthogonalLoop=1;jettySize=auto;html=1;entryX=0.665;entryY=0.975;entryDx=0;entryDy=0;entryPerimeter=0;" edge="1" parent="WIyWlLk6GJQsqaUBKTNV-1" source="i-_kAkva54_15qW7jgiC-75" target="i-_kAkva54_15qW7jgiC-67">
          <mxGeometry relative="1" as="geometry" />
        </mxCell>
        <mxCell id="i-_kAkva54_15qW7jgiC-79" value="是" style="edgeLabel;html=1;align=center;verticalAlign=middle;resizable=0;points=[];" vertex="1" connectable="0" parent="i-_kAkva54_15qW7jgiC-78">
          <mxGeometry x="-0.3638" y="12" relative="1" as="geometry">
            <mxPoint x="6" y="-3" as="offset" />
          </mxGeometry>
        </mxCell>
        <mxCell id="i-_kAkva54_15qW7jgiC-80" value="结束" style="strokeWidth=2;html=1;shape=mxgraph.flowchart.terminator;whiteSpace=wrap;fontSize=10;" vertex="1" parent="WIyWlLk6GJQsqaUBKTNV-1">
          <mxGeometry x="546" y="766.5" width="64" height="31" as="geometry" />
        </mxCell>
        <mxCell id="i-_kAkva54_15qW7jgiC-81" style="edgeStyle=orthogonalEdgeStyle;curved=1;rounded=0;orthogonalLoop=1;jettySize=auto;html=1;entryX=0.5;entryY=1;entryDx=0;entryDy=0;entryPerimeter=0;" edge="1" parent="WIyWlLk6GJQsqaUBKTNV-1" source="i-_kAkva54_15qW7jgiC-67" target="i-_kAkva54_15qW7jgiC-80">
          <mxGeometry relative="1" as="geometry" />
        </mxCell>
        <mxCell id="i-_kAkva54_15qW7jgiC-82" style="edgeStyle=orthogonalEdgeStyle;curved=1;rounded=0;orthogonalLoop=1;jettySize=auto;html=1;" edge="1" parent="WIyWlLk6GJQsqaUBKTNV-1" source="i-_kAkva54_15qW7jgiC-83" target="i-_kAkva54_15qW7jgiC-84">
          <mxGeometry relative="1" as="geometry" />
        </mxCell>
        <mxCell id="i-_kAkva54_15qW7jgiC-83" value="&lt;div class=&quot;lake-content&quot;&gt;生产网关将请求转发给生产环境对应的微服务&lt;/div&gt;" style="rounded=0;whiteSpace=wrap;html=1;fontSize=10;" vertex="1" parent="WIyWlLk6GJQsqaUBKTNV-1">
          <mxGeometry x="268.18" y="1106" width="93.82" height="38" as="geometry" />
        </mxCell>
        <mxCell id="i-_kAkva54_15qW7jgiC-84" value="结束" style="strokeWidth=2;html=1;shape=mxgraph.flowchart.terminator;whiteSpace=wrap;fontSize=10;" vertex="1" parent="WIyWlLk6GJQsqaUBKTNV-1">
          <mxGeometry x="407.12" y="1109.5" width="64" height="31" as="geometry" />
        </mxCell>
      </root>
    </mxGraphModel>
  </diagram>
</mxfile>
